<svg aria-hidden="true" style="position:absolute;width:0;height:0;overflow:hidden" xmlns="http://www.w3.org/2000/svg">
  <defs>
    <symbol id="icon-cs" viewBox="0 0 32 32">
      <path fill="#fff" style="fill:var(--color1, #fff)" d="M15.535 18.682v6.927c0 2.265-.531 3.904-1.593 4.916C12.914 31.508 11.197 32 8.796 32H6.738c-2.401 0-4.132-.492-5.193-1.475C.514 29.513 0 27.873 0 25.609V6.392c0-2.294.515-3.933 1.543-4.916C2.605.493 4.336.001 6.736.001h2.06c2.401 0 4.116.492 5.146 1.475 1.062.983 1.591 2.623 1.591 4.916v7.375l-6.362-.671V6.168c0-.148-.079-.223-.234-.223h-2.34c-.156 0-.233.073-.233.223v19.665c0 .148.077.223.233.223h2.34c.156 0 .233-.073.233-.223v-7.151h6.364zm8.231 3.127v4.023c0 .148.077.223.233.223h1.357c.157 0 .234-.073.234-.223l.047-5.945-5.286-2.189c-1.185-.508-1.981-1.028-2.385-1.565-.375-.537-.563-1.356-.563-2.458V6.391c0-2.294.515-3.933 1.545-4.916C19.976.492 21.645 0 23.955 0h1.964c2.185.089 3.744.64 4.679 1.654.935.983 1.404 2.563 1.404 4.737v5.585l-6.364-.669v-5.14c0-.148-.077-.223-.233-.223h-1.404c-.157 0-.234.073-.234.223v6.57l5.287 2.191c1.184.476 1.964.998 2.339 1.564.406.537.608 1.356.608 2.458v6.659c0 2.175-.468 3.769-1.404 4.783-.935.983-2.495 1.52-4.679 1.609h-1.871c-2.371 0-4.071-.492-5.1-1.475-1.03-1.012-1.545-2.652-1.545-4.916v-3.799h6.364z"/>
    </symbol>
    <symbol id="icon-mouse" viewBox="0 0 32 32">
      <path fill="#fff" style="fill:var(--color1, #fff)" d="M17.2 8a1.2 1.2 0 1 0-2.4 0v4.8a1.2 1.2 0 1 0 2.4 0V8z"/>
      <path fill="#fff" style="fill:var(--color1, #fff)" d="M3.2 12.8v6.4C3.2 26.27 8.93 32 16 32s12.8-5.73 12.8-12.8v-6.4C28.8 5.73 23.07 0 16 0S3.2 5.73 3.2 12.8zm23.2 0v6.4c0 5.744-4.656 10.4-10.4 10.4S5.6 24.944 5.6 19.2v-6.4C5.6 7.056 10.256 2.4 16 2.4s10.4 4.656 10.4 10.4z"/>
    </symbol>
    <symbol id="icon-lamp" viewBox="0 0 32 32">
      <path fill="#fff" style="fill:var(--color1, #fff)" d="M31.718 14.833a.478.478 0 0 0-.47-.449h-5.436l.882-2.012a.467.467 0 0 0 .006-.365l.001.003-.451-1.159c.283-.105.523-.218.752-.35l-.023.012 1.132.7c.209.117.409.089.597-.084l1.095-1.203a.47.47 0 0 0 .023-.608l-.813-1.044c.1-.222.182-.452.246-.686l1.298-.3a.472.472 0 0 0 .366-.46l-.001-.025v.001l-.082-1.618a.473.473 0 0 0-.41-.445h-.002l-1.322-.167a4.627 4.627 0 0 0-.327-.68l.012.023.704-1.12a.47.47 0 0 0-.085-.603L28.2 1.107a.475.475 0 0 0-.604-.022l.001-.001-1.056.811a4.535 4.535 0 0 0-.661-.238l-.034-.008-.301-1.285a.473.473 0 0 0-.459-.366l-.025.001h.001l-1.63.083a.474.474 0 0 0-.445.409v.002l-.169 1.31a4.87 4.87 0 0 0-.69.328l.023-.012-1.132-.7a.473.473 0 0 0-.597.083l-1.095 1.203a.472.472 0 0 0-.022.609l-.001-.001.812 1.044c-.065.14-.133.316-.19.497l-.009.034-2.213-.971c-.275-.091-.482-.01-.622.243l-1.878 4.284V1.106c0-.611-.945-.611-.945 0v2.069c-3.237.137-6.224 1.847-8.017 4.605-.322.495.443 1.053.792.515 1.619-2.489 4.307-4.038 7.225-4.174v20h-2.913a.724.724 0 0 1-.721-.725v-1.62a.473.473 0 0 0-.246-.415l-.002-.001c-2.892-1.577-4.822-4.596-4.822-8.065l.001-.112v.006a9.103 9.103 0 0 1 .412-2.629c.182-.583-.72-.865-.901-.282a9.828 9.828 0 0 0-.456 2.896v.005l-.001.117c0 3.727 2.019 6.982 5.022 8.732l.048.026v1.342c0 .756.504 1.396 1.193 1.601v2.238a2.624 2.624 0 0 0 2.621 2.62h.764v1.671c0 .611.945.611.945 0V20.219l4.813 2.11-.108.617a3.894 3.894 0 0 0-.487.201l.023-.01-.849-.591a.468.468 0 0 0-.604.053l-.933.934a.472.472 0 0 0-.052.606l-.001-.002.592.847a3.718 3.718 0 0 0-.182.437l-.008.028-1.01.178a.472.472 0 0 0-.39.465v.002l.005 1.325c.001.23.166.421.385.462h.003l1.016.185c.055.161.121.318.196.471l-.583.842a.47.47 0 0 0 .054.603l.941.94a.47.47 0 0 0 .605.053l-.002.001.842-.584c.153.075.309.14.471.196l.187 1.016a.47.47 0 0 0 .463.387l1.326.004a.472.472 0 0 0 .465-.391l.178-1.01c.159-.054.314-.117.464-.191l.849.591a.468.468 0 0 0 .604-.054l.933-.933a.47.47 0 0 0 .052-.606l.001.002-.592-.848a3.7 3.7 0 0 0 .182-.436l.008-.028 1.01-.179a.472.472 0 0 0 .39-.465v-.002l-.005-1.325a.472.472 0 0 0-.385-.462h-.003l-.955-.174c1.351-.006 2.725-.006 4.06-.006a.482.482 0 0 0 .433-.14l1.986-2.111a.47.47 0 0 0 .128-.323v-8.049l-.002-.023zm-1.563.496-1.076 1.145h-6.778l1.077-1.145h6.778zM24.823 7.19a.486.486 0 0 0-.248-.26l-.003-.001-1.793-.786a1.793 1.793 0 0 1 1.691-1.601h.004a1.79 1.79 0 0 1 1.884 1.767c0 .783-.505 1.449-1.207 1.689l-.013.004-.316-.811zm-.467 1.403 1.05 2.696-1.875-.828.825-1.867zm-3.312-4.584-.749-.962.562-.618 1.045.646a.476.476 0 0 0 .508-.006c.282-.188.608-.346.954-.456l.028-.008a.475.475 0 0 0 .328-.388v-.002l.156-1.208.842-.043.277 1.187c.043.18.184.317.363.355l.003.001c.386.08.728.205 1.044.373l-.021-.01a.471.471 0 0 0 .507-.046l-.001.001.975-.749.622.558-.649 1.033a.47.47 0 0 0 .008.514l-.001-.002c.201.302.357.629.465.973a.473.473 0 0 0 .391.327l1.219.154.042.828-1.197.276a.474.474 0 0 0-.356.361l-.001.003a3.846 3.846 0 0 1-.365 1.014.472.472 0 0 0 .045.511l-.001-.001.749.962-.563.618-1.045-.646a.474.474 0 0 0-.509.007l.002-.001a3.82 3.82 0 0 1-.787.398l-.027.009-.425-1.09a2.734 2.734 0 0 0 1.819-2.703 2.735 2.735 0 0 0-2.873-2.581 2.743 2.743 0 0 0-2.538 2.135l-.003.018-1.099-.482c.082-.288.185-.537.311-.771l-.01.021a.472.472 0 0 0-.046-.512l.001.001zm-7.55 24.903a1.678 1.678 0 0 1-1.676-1.676v-2.17h2.441v3.845h-.764zm1.71-18.114 2.554-5.825 6.002 2.631-1.284 2.907c-.091.274-.011.482.242.623l2.922 1.291-.859 1.959h-1.607a.467.467 0 0 0-.344.149l-1.986 2.111c-.098.103-.149.38-.137.528v4.375h-.124l-5.378-2.359v-8.392zm10.311 16.257-.906.16a.473.473 0 0 0-.375.346l-.001.003a3.039 3.039 0 0 1-.331.803l.008-.014a.468.468 0 0 0 .021.512l-.001-.002.531.761-.373.374-.762-.53a.468.468 0 0 0-.511-.019l.002-.001a3.044 3.044 0 0 1-.789.324.472.472 0 0 0-.348.374v.003l-.159.906-.534-.002-.167-.914a.474.474 0 0 0-.342-.371l-.003-.001a3.104 3.104 0 0 1-.808-.338l.014.008a.468.468 0 0 0-.511.021l.002-.001-.755.524-.382-.382.524-.756a.468.468 0 0 0 .017-.513l.001.002a3.034 3.034 0 0 1-.326-.772l-.005-.022a.474.474 0 0 0-.369-.344h-.003l-.914-.167-.002-.534.906-.16a.473.473 0 0 0 .375-.346l.001-.003c.077-.299.188-.562.331-.803l-.008.014a.473.473 0 0 0-.021-.511l.001.002-.531-.761.374-.374.761.53a.468.468 0 0 0 .511.019l-.002.001c.245-.144.511-.253.789-.325a.473.473 0 0 0 .348-.373V23.4l.159-.906.534.002.168.914c.033.18.167.325.345.372.301.08.566.193.808.338l-.014-.008a.469.469 0 0 0 .511-.02l-.002.001.755-.524.382.382-.524.756a.468.468 0 0 0-.017.513l-.001-.002c.147.247.258.515.331.794a.472.472 0 0 0 .372.345l.914.167.003.534zm4.22-3.232-.001-1.614c0-.611-.945-.611-.945 0v2.326c-1.193 0-2.411.001-3.613.006l.263-.379a.47.47 0 0 0-.054-.603l-.941-.94a.47.47 0 0 0-.605-.053l.002-.001-.842.584a3.58 3.58 0 0 0-.443-.187l-.028-.009-.187-1.016c-.059-.325-.402-.429-.683-.388-.008-.524.049-3.268 0-4.11h7.131v2.302c0 .611.945.611.945 0l.001-2.589 1.04-1.105v6.67l-1.04 1.105z"/>
      <path fill="#fff" style="fill:var(--color1, #fff)" d="M21.232 24.628h-.007c-.571 0-1.106.221-1.508.624a2.106 2.106 0 0 0-.622 1.499v.016-.001c.001.592.243 1.128.632 1.515.405.405.944.629 1.515.631h.007c.571 0 1.106-.222 1.508-.624.385-.383.622-.913.622-1.499v-.017.001a2.137 2.137 0 0 0-.632-1.515 2.136 2.136 0 0 0-1.515-.631zm.857 2.993a1.166 1.166 0 0 1-.831.347h-.013.001c-.333 0-.633-.136-.851-.355a1.198 1.198 0 0 1-.355-.85v-.009c0-.326.132-.621.346-.834a1.2 1.2 0 0 1 1.694.007 1.2 1.2 0 0 1 .355.85v.01c0 .326-.132.621-.346.834zM6.405 5.437c.397 0 .614-.526.334-.806L5.128 3.02c-.432-.432-1.1.236-.668.668l1.611 1.611a.468.468 0 0 0 .334.139zM3.017 12.88H.739c-.611 0-.611.945 0 .945h2.278c.611 0 .611-.945 0-.945zm3.198 8.466-1.611 1.611c-.432.432.236 1.1.668.668l1.611-1.611c.432-.432-.236-1.1-.668-.668z"/>
    </symbol>
    <symbol id="icon-horn" viewBox="0 0 32 32">
      <path fill="#fff" style="fill:var(--color1, #fff)" d="M26.403 15.076a4.082 4.082 0 0 0 .709-4.16l.01.028a4.103 4.103 0 0 0-3.293-2.571l-.02-.002-1.891-4.889c-.875-2.261-4.411-1.061-3.676 1.284l-3.716 2.187V2.214A2.211 2.211 0 0 0 12.317.006H2.21A2.213 2.213 0 0 0 0 2.214V3.86c0 .662 1.077.554.938-.099V2.215A1.274 1.274 0 0 1 2.21.943h10.107c.702.001 1.272.57 1.273 1.272v7.492a1.274 1.274 0 0 1-1.272 1.272h-2.246a.469.469 0 0 0-.469.469v1.977l-2.459-2.318a.468.468 0 0 0-.322-.128H2.21A1.274 1.274 0 0 1 .938 9.707V6.459C1.069 5.848 0 5.632 0 6.36v3.347a2.212 2.212 0 0 0 2.209 2.21h3.876a6.773 6.773 0 0 0-3.326 3.82l-.014.047C.72 16.994-.609 19.011.335 21.449c.644 1.665 2.295 2.804 4.083 2.804.604 0 1.18-.16 1.759-.311a6.596 6.596 0 0 0 2.933.68c.697 0 1.38-.125 2.049-.313l2.638 6.78c.368.952 1.635 1.22 2.354.491l1.673-1.696a1.918 1.918 0 0 0 .418-2.056l.005.013-.799-2.051a3.24 3.24 0 0 0 1.351-1.488l.008-.02a3.242 3.242 0 0 0 .205-1.988l.004.021 5.482-1.392c1.082 2.117 4.423.668 3.549-1.589l-1.646-4.256zm-.156-3.794c.133.335.211.723.211 1.13 0 .602-.17 1.164-.464 1.641l.008-.014-1.792-4.631a3.166 3.166 0 0 1 2.03 1.853l.007.021zM2.894 22.955a3.467 3.467 0 0 1-1.676-1.822l-.008-.023c-.565-1.461-.041-3.182 1.248-4.072a6.748 6.748 0 0 0 .413 3.334l-.016-.046a6.75 6.75 0 0 0 2.187 2.916l.016.012a3.409 3.409 0 0 1-2.185-.306l.02.009zm14.265 6.268-1.674 1.696c-.261.265-.693.136-.812-.172l-2.597-6.673 3.361-.853 1.938 4.957a.984.984 0 0 1-.216 1.045zm.792-5.322a2.304 2.304 0 0 1-.838.994l-.009.005-.746-1.913 1.749-.444a2.3 2.3 0 0 1-.163 1.373l.006-.014zm9.206-3.46c-.351.793-1.549.778-1.867-.043l-.935-2.417c-.219-.565-1.093-.227-.875.338l.667 1.723-13.413 3.406c-3.173.803-6.473-.974-7.236-4.237-.745-3.179 1.139-5.301 3.639-6.825l2.612 2.462c.3.283.79.058.79-.341v-2.594h1.777a2.212 2.212 0 0 0 2.209-2.21V8.037l4.054-2.386 4.012 10.369c.219.565 1.093.227.875-.338L19.157 4.548c-.47-1.214 1.415-1.942 1.884-.73l6.133 15.85c.097.251.091.525-.018.772zm4.811-11.372a.469.469 0 0 0-.609-.267l.003-.001-2.491.963c-.557.215-.206 1.085.339.875l2.49-.963a.47.47 0 0 0 .268-.61l.001.003zM25.811 7.37a.491.491 0 0 0 .619-.238l1.082-2.436c.246-.554-.611-.934-.857-.38l-1.082 2.436a.468.468 0 0 0 .236.617l.003.001zm5.764 7.829-2.44-1.075c-.555-.244-.932.613-.378.858l2.44 1.075c.534.235.931-.615.378-.859z"/>
      <path fill="#fff" style="fill:var(--color1, #fff)" d="M11.217 4.939a.79.79 0 0 0-.75-.546H8.594l-.579-1.781a.79.79 0 0 0-.75-.546h-.001a.787.787 0 0 0-.751.546l-.579 1.781H4.061c-.735 0-1.069.989-.464 1.429l1.515 1.101-.578 1.781c-.224.688.609 1.323 1.215.883l1.515-1.101 1.515 1.101c.595.432 1.446-.171 1.215-.883l-.579-1.781 1.515-1.101a.788.788 0 0 0 .287-.883zm-2.44 1.289a.787.787 0 0 0-.284.888l-.002-.006.471 1.451-1.234-.896a.785.785 0 0 0-.93.002l.002-.002-1.235.896.471-1.451a.786.786 0 0 0-.285-.882l-.002-.002-1.234-.897H6.04a.787.787 0 0 0 .751-.546l.471-1.451.471 1.451a.79.79 0 0 0 .75.546H10.009l-1.234.897z"/>
    </symbol>
    <symbol id="icon-darts" viewBox="0 0 32 32">
      <path fill="#fff" style="fill:var(--color1, #fff)" d="M22.244 22.755h-.001a3.612 3.612 0 0 0-3.602 3.612c-.001 1.965 1.636 3.615 3.6 3.615a3.613 3.613 0 0 0 3.602-3.613c.001-1.964-1.634-3.614-3.599-3.614zm-.003 6.29c-1.451 0-2.663-1.227-2.662-2.677a2.674 2.674 0 0 1 2.664-2.675c1.45 0 2.663 1.227 2.662 2.677a2.674 2.674 0 0 1-2.664 2.675z"/>
      <path fill="#fff" style="fill:var(--color1, #fff)" d="M32 21.213a.478.478 0 0 0-.468-.469h-.001l-7.49-.011a13.048 13.048 0 0 0 2.336-7.502v-.016c0-2.667-.796-5.149-2.163-7.22l.03.049.877-.613 1.667.617a.467.467 0 0 0 .431-.055l-.002.001 3.487-2.414a.473.473 0 0 0-.105-.825l-1.052-.389.75-.519c.498-.345-.036-1.116-.534-.771l-.749.518.007-1.122a.473.473 0 0 0-.736-.389l-3.487 2.414a.468.468 0 0 0-.202.382l-.012 1.781-.881.617C21.292 2.094 17.475.033 13.186.033 5.914.033-.003 5.954-.003 13.231a13.18 13.18 0 0 0 2.974 8.35l-.019-.024a13.27 13.27 0 0 0 7.009 4.477l.091.02v1.462H5.313a.469.469 0 0 0-.469.469v3.526c0 .259.21.469.469.469l18.848.019c.589 0 .589-.937 0-.938l-7.964-.004v-6.599a.469.469 0 0 0-.469-.469h-1.769a2.976 2.976 0 0 0 1.908-2.313l.002-.017 12.743.018a2.94 2.94 0 0 0 .827 1.627 2.92 2.92 0 0 0 1.593.828l.017.002v4.477a2.978 2.978 0 0 0-2.441 2.45h-1.417c-.606 0-.606.938 0 .938h4.331c.26 0 .471-.209.474-.468V21.213zM25.535 3.129l2.546-1.763-.007 1.122a.477.477 0 0 0 .303.442l.003.001 1.052.389-2.546 1.762-1.36-.502.009-1.451zm-.094 10.101c0 2.749-.885 5.339-2.561 7.501l-3.267-.005a9.998 9.998 0 0 0 3.001-4.551c.282-.88.445-1.893.445-2.944a9.948 9.948 0 0 0-.476-3.05l.02.07a9.827 9.827 0 0 0-1.101-2.346l.023.039 1.951-1.364a12.081 12.081 0 0 1 1.964 6.636v.015-.001zM3.683 20.965a12.217 12.217 0 0 1-2.745-7.734c0-6.76 5.496-12.26 12.251-12.26 3.972 0 7.508 1.902 9.749 4.844l-1.951 1.364a10.007 10.007 0 0 0-1.359-1.432l-.013-.011a9.782 9.782 0 0 0-4.925-2.273l-.055-.007a9.79 9.79 0 0 0-5.626.821l.06-.025c-.55.253-.158 1.105.393.851a8.872 8.872 0 0 1 3.742-.813c.456 0 .905.034 1.343.099l-.049-.006a8.905 8.905 0 0 1 4.506 2.063c.447.385.852.811 1.213 1.269L18.264 9.08a6.54 6.54 0 0 0-5.076-2.414c-3.614 0-6.555 2.945-6.555 6.564s2.941 6.564 6.555 6.564c3.615 0 6.556-2.945 6.556-6.564a6.527 6.527 0 0 0-.94-3.384l1.952-1.365c.378.59.7 1.27.934 1.989l.018.063a8.82 8.82 0 0 1 .413 2.697c0 .951-.147 1.868-.42 2.728l.017-.064a9.088 9.088 0 0 1-3.112 4.442l-.021.016c-.17.13-.347.254-.526.371l-5.122-.007c-.287.027-.444.184-.469.471l.005.955a8.901 8.901 0 0 1-3.586-1.074l.046.023c-2.379-1.296-4.089-3.663-4.549-6.335a9.021 9.021 0 0 1 2.587-7.945c.435-.422-.219-1.094-.653-.672a9.965 9.965 0 0 0-2.858 8.777c.509 2.949 2.399 5.568 5.025 6.998a9.729 9.729 0 0 0 3.961 1.167l.033.002.005.905h-1.961a.469.469 0 0 0-.469.469v.628a12.351 12.351 0 0 1-6.355-4.099l-.017-.022zm9.089-7.473c.202.22.42.259.653.116l1.87-1.307a2.309 2.309 0 0 1-2.106 3.24 2.308 2.308 0 0 1-2.301-2.31 2.308 2.308 0 0 1 2.301-2.31c.603 0 1.152.234 1.563.616l-1.863 1.302a.468.468 0 0 0-.114.654l-.001-.001zm.417-3.509c-1.786 0-3.239 1.457-3.239 3.248s1.453 3.248 3.239 3.248a3.247 3.247 0 0 0 2.884-4.723l1.961-1.371a5.6 5.6 0 0 1 .773 2.845c0 3.102-2.521 5.627-5.619 5.627S7.57 16.333 7.57 13.23c0-3.102 2.521-5.627 5.618-5.627 1.726 0 3.27.78 4.298 2.007l.007.009-1.963 1.372a3.217 3.217 0 0 0-2.342-1.008zm-2.196 18.47h4.27v.826h-4.27v-.826zm4.27-.937h-4.27v-.826h4.27v.826zm-9.478.937h4.27v.826h-4.27v-.826zm4.27 2.589h-4.27v-.826h4.27v.826zm.938-.825h4.27v.826h-4.27v-.826zm4.27-4.464h-4.27v-.825h4.27v.826zm-1.837-2.579.001-1.499 1.49.001a2.034 2.034 0 0 1-1.476 1.496l-.014.003zm16.682-.531a2.01 2.01 0 0 1-.533-.949l-.003-.014h1.489l-.005 1.499a2.003 2.003 0 0 1-.949-.536zm-.54 8.418a2.035 2.035 0 0 1 1.455-1.49l.014-.003-.005 1.493h-1.465z"/>
    </symbol>
    <symbol id="icon-rocket" viewBox="0 0 32 32">
      <path fill="#fff" style="fill:var(--color1, #fff)" d="M31.373.939a.53.53 0 0 0-.307-.31l-.004-.001c-.158-.053-3.917-1.304-8.414-.12-.587.155-.348 1.06.238.907 3.634-.957 6.83-.197 7.663.037.165.585.589 2.326.499 4.555a13.991 13.991 0 0 1-3.924 9.197l.004-.004c-2.456-.791-4.595-2.722-6.198-4.337-2.885-2.885-3.869-5.247-4.127-5.991a14.027 14.027 0 0 1 3.845-2.652c.549-.254.156-1.105-.394-.851-.9.421-1.67.877-2.39 1.397l.043-.029c-.576-.166-1.312-.14-1.907-.14-3.581 0-6.947 1.395-9.479 3.926s-3.926 5.899-3.926 9.479c0 .407.019.818.056 1.221-.799 1.961-1.488 4.358-1.6 4.753a.474.474 0 0 0 .579.579c.009-.003.309-.088.782-.231C.948 25.456.048 31.192.006 31.462c-.046.296.252.578.535.535.011-.002 1.118-.174 2.603-.48.593-.123.403-1.042-.19-.918-.78.161-1.454.284-1.914.364.316-1.805 1.301-6.926 2.651-9.041.646-.21 1.372-.459 2.069-.723.072.395.182.785.331 1.165-.745 1.895-1.37 4.069-1.475 4.443a.474.474 0 0 0 .579.578c.373-.106 2.547-.731 4.443-1.475.38.149.771.259 1.165.331-.15.352-.396 1.039-.626 1.734l-.097.339c-.915.582-2.551 1.183-4.754 1.743-.58.147-.331 1.052.231.908 1.732-.441 3.111-.9 4.12-1.372-.143.471-.228.771-.231.78a.473.473 0 0 0 .579.578c.397-.112 2.828-.811 4.796-1.617.306.13.874.075 1.179.075 3.581 0 6.947-1.394 9.479-3.926s3.926-5.899 3.926-9.479c0-.641-.046-1.285-.136-1.915 2.06-2.896 2.634-5.897 2.717-8.08.111-2.907-.583-4.981-.613-5.069zM16 3.534c.284 0 .569.01.852.029-.325.279-.619.551-.903.834-.201.183-4.076 3.751-7.884 9.872a3.375 3.375 0 0 0-1.689-.446c-.942 0-1.796.381-2.414.998a3.09 3.09 0 0 0-.414.548C3.879 8.788 9.337 3.535 16 3.535zM2.194 21.41c.581-1.913 1.683-5.18 2.43-5.927a2.47 2.47 0 0 1 1.75-.723c.441 0 .855.115 1.214.317l-.012-.006c-.259.41-.641 1.07-1.01 1.739l-.142.281a6.21 6.21 0 0 0-.761 3.149v-.007c-1.237.48-2.617.918-3.468 1.178zm5.996-1.098c.953-.952 2.546-.952 3.499 0 .953.954.953 2.545 0 3.498-.748.748-4.017 1.85-5.929 2.43.58-1.912 1.683-5.181 2.43-5.929zm4.161 4.161c1.313-1.313 1.313-3.511 0-4.824-.618-.616-1.47-.997-2.412-.997s-1.794.381-2.412.997c-.272.272-.562.758-.849 1.354a5.313 5.313 0 0 1 .584-3.494l-.014.027c3.448-6.36 7.421-10.572 8.818-11.954.44 1.095 1.566 3.309 4.201 5.943 1.587 1.597 3.684 3.494 6.146 4.417-1.198 1.212-4.589 4.196-9.48 7.386-.745.486-1.731 1.025-2.468 1.424a5.269 5.269 0 0 1-2.551.65c-.324 0-.64-.029-.948-.084l.032.005c.595-.288 1.082-.577 1.354-.85zm-.581 1.864.135.001a6.286 6.286 0 0 0 3.039-.778l-.033.016a53.676 53.676 0 0 0 2.02-1.153c.197.346.313.761.313 1.203 0 .683-.278 1.302-.727 1.748-.747.747-4.014 1.849-5.927 2.43.084-.277.875-2.686 1.179-3.469zm16.698-10.335c0 6.663-5.254 12.123-11.838 12.452.228-.141.416-.281.551-.416a3.391 3.391 0 0 0 1.002-2.411c0-.623-.167-1.206-.459-1.708l.009.016c6.121-3.807 9.689-7.681 9.874-7.884.282-.283.555-.577.815-.88l.018-.021c.019.283.029.567.029.852z"/>
      <path fill="#fff" style="fill:var(--color1, #fff)" d="M16.549 18.749h.006c.909 0 1.732-.369 2.327-.965 1.27-1.269 1.27-3.396 0-4.666-.597-.596-1.422-.965-2.333-.965s-1.735.369-2.333.965c-1.269 1.269-1.27 3.395 0 4.666a3.278 3.278 0 0 0 2.327.965h.006zm-1.669-4.968c.909-.909 2.431-.909 3.34 0 .91.91.91 2.43 0 3.34-.428.427-1.018.691-1.67.691s-1.242-.264-1.67-.691a2.384 2.384 0 0 1 0-3.34z"/>
    </symbol>
    <symbol id="icon-twiter" viewBox="0 0 32 32">
      <path fill="#fff" style="fill:var(--color1, #fff)" d="M28.688 9.945a13.998 13.998 0 0 0 3.219-3.329l.031-.047a11.992 11.992 0 0 1-3.698.996l-.054.005a6.448 6.448 0 0 0 2.864-3.581l.012-.045a13.6 13.6 0 0 1-4.032 1.609l-.093.017a6.544 6.544 0 0 0-4.776-2.062h-.04.002-.002a6.56 6.56 0 0 0-6.56 6.56v.002c0 .5.062 1.001.187 1.5A19.032 19.032 0 0 1 2.21 4.725l-.025-.031a6.314 6.314 0 0 0-.874 3.317v-.005a6.45 6.45 0 0 0 2.939 5.436c-1.063-.062-2.126-.311-3.001-.812v.064c0 3.161 2.233 5.8 5.207 6.428l.043.008c-.5.126-1.125.251-1.687.251-.437 0-.812-.062-1.25-.124.812 2.626 3.25 4.5 6.124 4.562a13.106 13.106 0 0 1-8.121 2.814h-.001c-.564 0-1.063-.062-1.563-.124 2.875 1.876 6.311 2.937 10.062 2.937 12.062 0 18.626-9.938 18.626-18.624v-.875z"/>
    </symbol>
    <symbol id="icon-linkedin" viewBox="0 0 32 32">
      <path fill="#fff" style="fill:var(--color1, #fff)" d="M7.032 32V10.976H.492V32h6.54zM3.726 8.164c2.11 0 3.798-1.758 3.798-3.868C7.524 2.256 5.836.57 3.726.57 1.686.57 0 2.26 0 4.296c0 2.11 1.688 3.868 3.726 3.868zM31.43 32h.07V20.468c0-5.624-1.266-9.984-7.876-9.984-3.164 0-5.272 1.76-6.186 3.376h-.07v-2.884h-6.26V32h6.54V21.594c0-2.742.492-5.344 3.868-5.344 3.374 0 3.446 3.094 3.446 5.554V32h6.468z"/>
    </symbol>
    <symbol id="icon-skype" viewBox="0 0 32 32">
      <path fill="#fff" style="fill:var(--color1, #fff)" d="M29 18.441c.2-.926.331-1.92.331-2.912 0-7.479-6.088-13.566-13.566-13.566-.992 0-1.986.132-2.912.331A7.258 7.258 0 0 0 8.357.705h-.003C4.249.705.941 4.08.941 8.118c0 1.72.529 3.307 1.523 4.565-.198.85-.318 1.831-.331 2.837v.009c0 7.544 6.088 13.632 13.566 13.632.992 0 1.986-.132 2.912-.331a7.197 7.197 0 0 0 4.444 1.523h.058-.003.013a7.4 7.4 0 0 0 7.4-7.4v-.014.001c.066-1.653-.529-3.241-1.523-4.499zm-12.838 6.088c-4.367 0-8.008-1.92-8.008-4.301 0-1.058.595-2.052 1.986-2.052 2.052 0 2.249 2.978 5.822 2.978 1.656 0 2.78-.727 2.78-1.72 0-1.257-1.058-1.455-2.78-1.852-4.104-1.06-7.808-1.457-7.808-5.758 0-3.972 3.904-5.427 7.213-5.427 3.64 0 7.345 1.457 7.345 3.708 0 1.124-.727 2.116-1.984 2.116-1.854 0-1.92-2.249-4.964-2.249-1.72 0-2.78.463-2.78 1.521 0 1.257 1.391 1.391 4.567 2.184 2.714.597 6.024 1.722 6.024 5.097 0 3.904-3.772 5.756-7.413 5.756z"/>
    </symbol>
    <symbol id="icon-facebook" viewBox="0 0 32 32">
      <path fill="#fff" style="fill:var(--color1, #fff)" d="m23.257 17.474.829-5.447h-5.273V8.472c0-1.539.712-2.961 3.08-2.961h2.427V.836S22.132.422 20.061.422c-4.323 0-7.166 2.664-7.166 7.402v4.202H8.039v5.447h4.856v13.263h5.922V17.473h4.441z"/>
    </symbol>
  </defs>
</svg>
